<?xml version="1.0"?>
<svg xmlns:rdf="http://www.w3.org/1999/02/22-rdf-syntax-ns#" xmlns="http://www.w3.org/2000/svg" xmlns:cc="http://creativecommons.org/ns#" xmlns:dc="http://purl.org/dc/elements/1.1/" id="svg2" viewBox="0 0 158.85 145.03" version="1.1">
  <g id="layer2" transform="translate(-42.412 -27.437)">
    <g id="g4050" transform="translate(-274,-22)">
      <g id="g3225" transform="translate(280.73 23.218)">
        <path id="path3128-3" stroke="#000" stroke-width="1px" fill="#776f5c" d="m185.28 124.51c-3.8568 3.6788-62.042 46.421-72.332 46.245-10.3-0.18-76.685-61.67-76.685-61.67-0.922-7.9 19.396-17.325 30.811-16.751 53.524 20.721 119.76 31.451 118.2 32.171z"/>
        <path id="path3128-1" fill="#52413d" d="m117.19 26.779s-18.834 38.073-28.36 58.597c-3.8568 3.6788-27.654 23.891-37.945 27.273-10.29 3.3815-14.625-3.5573-14.625-3.5573-0.92227-7.9051 4.9727-25.593 11.462-35.573 11.908-9.6471 66.892-50.509 69.466-46.739z"/>
        <path id="path3128-10" stroke="#574143" stroke-width="1px" fill="#574143" d="m185.28 124.51c-3.8568 3.6788-62.042 46.421-72.332 46.245-10.29-0.17584-20.949-58.498-20.949-58.498 19.051 11.419 78.589-25.037 93.281 12.253z"/>
        <path id="path3128-18" fill="#2b1d3f" d="m117.19 26.779c9.1897-0.1992 67.908 53.608 75.593 63.34 4.3242 5.4765-1.8917 29.672-7.5099 34.387-37.243 13.993-58.139-15.016-83.004-9.8814-0.92227-7.9051-1.7466-31.521 4.7431-41.502 11.942-9.496 0.98815-46.145 10.178-46.344z"/>
        <path id="path3128-8" stroke="#3c2541" stroke-width="1px" fill="#392540" d="m117.19 26.779c4.2713 1.0304 27.486 85.109 29.348 96.542 1.0158 6.2376-41.061 10.888-49.802 11.858-8.7411 0.96924-38.395-17.76-42.337-22.859-4.1983-5.4309 45.107-66.839 62.791-85.541z"/>
        <path id="path3128" stroke="#000" stroke-width="1px" fill="none" d="m117.19 26.779c9.1897-0.1992 67.908 53.608 75.593 63.34 4.3242 5.4765-3.6531 30.709-7.5099 34.387-3.8568 3.6788-62.042 46.421-72.332 46.245-10.29-0.17-76.675-61.66-76.675-61.66-0.922-7.9 4.973-25.592 11.462-35.572 11.943-9.496 60.273-46.54 69.463-46.739z"/>
      </g>
      <path id="path3233" d="m393.85 54.062c-23.06 27.72-48.64 56.128-58.65 77.988" stroke="#4d4d4d" stroke-linecap="round" stroke-width="1px" fill="none"/>
      <path id="path4003" d="m401.99 56.219c9.4808 26.33 17.367 56.382 24.876 87.313" stroke="#4d4d4d" stroke-linecap="round" stroke-width="1px" fill="none"/>
      <path id="path4005" d="m335.19 136.56c10.221 9.3126 24.397 16.519 37.568 21.898" stroke="#666" stroke-linecap="round" stroke-width="1px" fill="none"/>
      <path id="path4007" d="m380.33 158.2c15.313-0.69098 30.232-3.2273 44.546-8.5802" stroke="#4d4d4d" stroke-linecap="round" stroke-width="1px" fill="none"/>
      <path id="path4009" d="m430.85 149.5c8.6378 2.3904 18.343 1.9722 29.851 0.24876" stroke="#666" stroke-linecap="round" stroke-width="1px" fill="none"/>
      <path id="path4011" d="m377.61 161.06c2.8223 10.638 6.0982 22.981 10.573 28.993" stroke="#808080" stroke-linecap="round" stroke-width="1px" fill="none"/>
      <g id="text4025" fill="#ccc" transform="matrix(.75267 -.26380 .67693 1.0913 0 0)">
        <path id="path4042" d="m395.78 205.61 6.4404-0.71034c0.15785 1.3102 0.56827 2.281 1.2313 2.9124 0.66297 0.63142 1.539 0.94712 2.6282 0.94712 1.3733 0 2.5414-0.63141 3.5043-1.8942 0.96289-1.2628 1.5785-3.8832 1.8469-7.8611-1.6733 1.9416-3.7648 2.9124-6.2746 2.9124-2.7309 0.00001-5.0908-1.0497-7.0797-3.1492-1.9732-2.1152-2.9598-4.8618-2.9598-8.2399 0-3.5201 1.0418-6.3536 3.1255-8.5004 2.0994-2.1626 4.7672-3.2438 8.0031-3.2439 3.5201 0.00003 6.4088 1.3655 8.6661 4.0963 2.2573 2.7151 3.3859 7.1902 3.3859 13.425-0.00002 6.3457-1.176 10.923-3.528 13.733-2.352 2.8098-5.4144 4.2147-9.187 4.2147-2.7151 0-4.9092-0.71823-6.5825-2.1547-1.6732-1.4522-2.7466-3.6148-3.2202-6.4878m15.059-14.538c-0.00001-2.1468-0.49725-3.8121-1.4917-4.996-0.9787-1.1839-2.1152-1.7758-3.4096-1.7758-1.2313 0.00003-2.2573 0.48937-3.0781 1.468-0.80506 0.96293-1.2076 2.5494-1.2076 4.7593 0 2.2415 0.44198 3.8911 1.326 4.9487 0.88396 1.0418 1.9889 1.5628 3.3149 1.5628 1.2786 0.00001 2.352-0.50511 3.2202-1.5154 0.88396-1.0102 1.326-2.4941 1.326-4.4514"/>
      </g>
      <g id="text4031" fill="#ccc" transform="matrix(-.83199 -.055266 -1.1383 -1.2775 0 0)">
        <path id="path4036" d="m-279.18-116.48c-0.9865-0.41631-1.706-0.98648-2.1585-1.7105-0.44348-0.73307-0.66521-1.534-0.66521-2.4029 0-1.4842 0.51587-2.7106 1.5476-3.679 1.0408-0.96838 2.516-1.4526 4.4257-1.4526 1.8915 0.00002 3.3577 0.48422 4.3985 1.4526 1.0498 0.96841 1.5748 2.1948 1.5748 3.679-0.00001 0.92316-0.23985 1.7468-0.71951 2.4708-0.47969 0.71499-1.1539 1.2626-2.0228 1.6426 1.1042 0.44349 1.9413 1.0906 2.5115 1.9413 0.57922 0.85075 0.86883 1.8327 0.86885 2.9459-0.00002 1.8372-0.5883 3.3306-1.7648 4.48-1.1675 1.1494-2.7242 1.7241-4.67 1.7241-1.8101 0-3.317-0.47515-4.5207-1.4254-1.4209-1.1222-2.1314-2.6608-2.1314-4.6157 0-1.077 0.26699-2.0635 0.80096-2.9595 0.53398-0.90504 1.3757-1.6019 2.5251-2.0907m0.78739-3.8419c-0.00001 0.76025 0.21268 1.353 0.63805 1.7784 0.43442 0.42538 1.0091 0.63807 1.7241 0.63806 0.72403 0.00001 1.3033-0.21268 1.7377-0.63806 0.43441-0.43441 0.65162-1.0317 0.65163-1.792-0.00001-0.71497-0.21722-1.2852-0.65163-1.7105-0.42538-0.43441-0.99103-0.65162-1.697-0.65163-0.73309 0.00001-1.3168 0.21722-1.7513 0.65163-0.43443 0.43444-0.65164 1.0091-0.65163 1.7241m-0.35297 8.5255c0 1.0499 0.26698 1.8689 0.80097 2.4572 0.54302 0.58828 1.2173 0.88242 2.0228 0.88241 0.78738 0.00001 1.439-0.28056 1.9549-0.84169 0.51586-0.57017 0.7738-1.3892 0.77381-2.4572-0.00001-0.93219-0.26247-1.6788-0.78739-2.24-0.52493-0.57017-1.1901-0.85526-1.9956-0.85527-0.93221 0.00001-1.6291 0.3213-2.0907 0.96388-0.45252 0.64259-0.67878 1.3395-0.67878 2.0906"/>
      </g>
      <g id="text4021" transform="matrix(-.87994 .047795 .96582 -1.1889 0 0)" fill="#ccc">
        <path id="path4039" d="m-643.75-161.9v3.919h-14.79c0.16016-1.4815 0.64064-2.8829 1.4414-4.2042 0.80081-1.3313 2.3824-3.0931 4.7448-5.2854 1.9019-1.7718 3.0681-2.973 3.4985-3.6036 0.58058-0.87087 0.87087-1.7317 0.87088-2.5826-0.00001-0.94094-0.25527-1.6617-0.76577-2.1622-0.50052-0.5105-1.1962-0.76576-2.0871-0.76578-0.8809 0.00002-1.5816 0.26529-2.1021 0.79581-0.52053 0.53055-0.82083 1.4114-0.90091 2.6427l-4.2042-0.42042c0.25025-2.3223 1.036-3.989 2.3574-5.0001 1.3213-1.011 2.973-1.5165 4.955-1.5165 2.1722 0.00002 3.8789 0.58562 5.1202 1.7568 1.2412 1.1712 1.8619 2.6277 1.8619 4.3694-0.00002 0.99102-0.1802 1.937-0.54055 2.8379-0.35037 0.89092-0.91094 1.8269-1.6817 2.8078-0.51053 0.65067-1.4315 1.5866-2.7628 2.8078-1.3314 1.2212-2.1772 2.0321-2.5376 2.4325-0.35036 0.40041-0.63565 0.79081-0.85586 1.1712h8.3785"/>
      </g>
      <g id="text4017" fill="#ccc" transform="matrix(.27213 .71460 -1.0348 .95750 0 0)">
        <path id="path4048" d="m421.74-213.31 5.8668-0.71178c0.18693 1.4955 0.69021 2.6386 1.5098 3.4295 0.81962 0.79088 1.8118 1.1863 2.9766 1.1863 1.251 0 2.3007-0.47452 3.1491-1.4236 0.86276-0.94904 1.2941-2.2288 1.2942-3.8393-0.00002-1.5242-0.40983-2.7321-1.2294-3.6236-0.81964-0.89151-1.819-1.3373-2.9981-1.3373-0.7765 0.00001-1.704 0.151-2.7824 0.45295l0.66865-4.9394c1.6392 0.0432 2.8903-0.30914 3.753-1.0569 0.86276-0.76209 1.2941-1.7686 1.2942-3.0197-0.00001-1.064-0.31636-1.9124-0.94904-2.5452-0.63271-0.63267-1.4739-0.94902-2.5236-0.94905-1.0353 0.00003-1.9197 0.35951-2.653 1.0785-0.73336 0.719-1.1791 1.7687-1.3373 3.1491l-5.5864-0.94905c0.38824-1.9124 0.97061-3.4367 1.7471-4.5727 0.79086-1.1503 1.8837-2.049 3.2785-2.6962 1.4092-0.66143 2.9837-0.99216 4.7237-0.99219 2.9765 0.00003 5.3635 0.94908 7.161 2.8471 1.4811 1.553 2.2216 3.3073 2.2216 5.2629-0.00002 2.7753-1.517 4.9897-4.5511 6.6433 1.8118 0.38827 3.2569 1.2582 4.3354 2.6099 1.0928 1.3517 1.6392 2.9838 1.6393 4.8962-0.00002 2.7752-1.0138 5.1407-3.0413 7.0963s-4.5511 2.9334-7.5708 2.9334c-2.8615 0-5.2341-0.81963-7.1178-2.4589-1.8837-1.6536-2.9766-3.8106-3.2785-6.4708"/>
      </g>
      <g id="text4013" fill="#ccc" transform="matrix(.98784 -.0014298 .0014652 1.0123 0 0)">
        <path id="path4045" d="m378.21 121.33 8.4108-0.87112c0.2403 1.9024 0.95121 3.4144 2.1327 4.5358 1.1815 1.1014 2.5432 1.6521 4.0852 1.6521 1.7622 0 3.2541-0.71091 4.4757-2.1327 1.2215-1.4418 1.8323-3.6046 1.8324-6.4883-0.00003-2.7034-0.61081-4.726-1.8324-6.0678-1.2016-1.3617-2.7736-2.0426-4.716-2.0426-2.4231 0.00002-4.5959 1.0714-6.5184 3.2141l-6.8488-0.99126 4.3255-22.919h22.319v7.9001h-15.92l-1.3217 7.4796c1.8824-0.94118 3.8049-1.4118 5.7674-1.4118 3.7448 0.00003 6.9188 1.3618 9.5222 4.0852 2.6033 2.7235 3.905 6.258 3.905 10.604-0.00003 3.6247-1.0514 6.8588-3.154 9.7024-2.8637 3.885-6.8388 5.8275-11.925 5.8275-4.0652 0-7.3795-1.0914-9.9427-3.2742-2.5633-2.1828-4.0952-5.1165-4.5959-8.8013"/>
      </g>
    </g>
  </g>
  <metadata>
    <rdf:RDF>
      <cc:Work>
        <dc:format>image/svg+xml</dc:format>
        <dc:type rdf:resource="http://purl.org/dc/dcmitype/StillImage"/>
        <cc:license rdf:resource="http://creativecommons.org/licenses/publicdomain/"/>
        <dc:publisher>
          <cc:Agent rdf:about="http://openclipart.org/">
            <dc:title>Openclipart</dc:title>
          </cc:Agent>
        </dc:publisher>
      </cc:Work>
      <cc:License rdf:about="http://creativecommons.org/licenses/publicdomain/">
        <cc:permits rdf:resource="http://creativecommons.org/ns#Reproduction"/>
        <cc:permits rdf:resource="http://creativecommons.org/ns#Distribution"/>
        <cc:permits rdf:resource="http://creativecommons.org/ns#DerivativeWorks"/>
      </cc:License>
    </rdf:RDF>
  </metadata>
</svg>
